<svg width="24" height="25" xmlns="http://www.w3.org/2000/svg" xmlns:xlink="http://www.w3.org/1999/xlink" overflow="hidden"><defs><clipPath id="clip0"><rect x="227" y="109" width="24" height="25"/></clipPath><clipPath id="clip1"><rect x="229" y="112" width="19" height="19"/></clipPath><clipPath id="clip2"><rect x="229" y="112" width="19" height="19"/></clipPath><clipPath id="clip3"><rect x="229" y="112" width="19" height="19"/></clipPath></defs><g clip-path="url(#clip0)" transform="translate(-227 -109)"><path d="M227 121.5C227 115.149 232.149 110 238.5 110 244.851 110 250 115.149 250 121.5 250 127.851 244.851 133 238.5 133 232.149 133 227 127.851 227 121.5Z" fill="#06BEFF" fill-rule="evenodd"/><g clip-path="url(#clip1)"><g clip-path="url(#clip2)"><g clip-path="url(#clip3)"><path d="M230.583 120.51 236.244 115.76 236.244 118.531C244.932 118.61 246.417 127.438 246.417 127.438 246.417 127.438 243.191 122.747 236.244 122.688L236.244 125.26 230.583 120.51Z" fill="#FFFFFF"/></g></g></g></g></svg>