<svg xmlns="http://www.w3.org/2000/svg" width="16.42" height="18.743" viewBox="0 0 16.42 18.743">
  <path id="Icon_metro-attachment" data-name="Icon metro-attachment" d="M15.15,7.914,13.96,6.726,8.007,12.67a2.523,2.523,0,0,0,3.571,3.566L18.722,9.1A4.206,4.206,0,0,0,12.77,3.159l-7.5,7.489-.016.015a5.866,5.866,0,0,0,8.3,8.29l.015-.016h0l5.119-5.112L17.5,12.638,12.38,17.75l-.016.015a4.183,4.183,0,0,1-5.921-5.912l.016-.015h0l7.5-7.489a2.524,2.524,0,1,1,3.571,3.566l-7.143,7.133A.841.841,0,0,1,9.2,13.859L15.15,7.914Z" transform="translate(-3.535 -1.928)" fill="#a5a5a5"/>
</svg>
